<?xml version="1.0" encoding="UTF-8" standalone="no"?>
<svg
   xmlns:dc="http://purl.org/dc/elements/1.1/"
   xmlns:cc="http://creativecommons.org/ns#"
   xmlns:rdf="http://www.w3.org/1999/02/22-rdf-syntax-ns#"
   xmlns:svg="http://www.w3.org/2000/svg"
   xmlns="http://www.w3.org/2000/svg"
   xmlns:sodipodi="http://sodipodi.sourceforge.net/DTD/sodipodi-0.dtd"
   xmlns:inkscape="http://www.inkscape.org/namespaces/inkscape"
   inkscape:export-ydpi="96"
   inkscape:export-xdpi="96"
   inkscape:export-filename="C:\Users\tonyf\OneDrive\Desktop\granularitylogo2.png"
   sodipodi:docname="granularity3.svg"
   inkscape:version="1.0 (4035a4fb49, 2020-05-01)"
   id="svg8"
   version="1.1"
   viewBox="0 0 347.82031 39.523235"
   height="39.523235"
   width="347.82031">
  <defs
     id="defs2" />
  <sodipodi:namedview
     showborder="true"
     inkscape:window-maximized="1"
     inkscape:window-y="-6"
     inkscape:window-x="-6"
     inkscape:window-height="850"
     inkscape:window-width="1368"
     inkscape:pagecheckerboard="false"
     fit-margin-bottom="1"
     fit-margin-right="1"
     fit-margin-left="1"
     fit-margin-top="1"
     showgrid="false"
     inkscape:document-rotation="0"
     inkscape:current-layer="layer1"
     inkscape:document-units="px"
     inkscape:cy="6.2654749"
     inkscape:cx="209.88899"
     inkscape:zoom="1.09"
     inkscape:pageshadow="2"
     inkscape:pageopacity="0"
     borderopacity="1.0"
     bordercolor="#666666"
     pagecolor="#393e42"
     id="base"
     units="px">
    <inkscape:grid
       originy="-3.7345662"
       originx="-6.0898452"
       id="grid968"
       type="xygrid" />
  </sodipodi:namedview>
  <metadata
     id="metadata5">
    <rdf:RDF>
      <cc:Work
         rdf:about="">
        <dc:format>image/svg+xml</dc:format>
        <dc:type
           rdf:resource="http://purl.org/dc/dcmitype/StillImage" />
        <dc:title></dc:title>
      </cc:Work>
    </rdf:RDF>
  </metadata>
  <g
     transform="translate(-39.312145,-126.2718)"
     id="layer1"
     inkscape:groupmode="layer"
     inkscape:label="Layer 1">
    <g
       aria-label="GR  NUL  RITY"
       id="text878"
       style="font-style:normal;font-weight:normal;font-size:29.7441px;line-height:1.25;font-family:sans-serif;fill:#000000;fill-opacity:1;stroke:none;stroke-width:0.743605">
      <path
         d="m 71.413708,161.49036 q -2.859375,1.3125 -6.257813,2.29687 -3.375,0.96094 -6.539062,0.96094 -4.078125,0 -7.476563,-1.125 -3.398437,-1.125 -5.789062,-3.375 -2.414063,-2.27344 -3.726563,-5.67188 -1.3125,-3.42187 -1.3125,-7.99218 0,-8.36719 4.875,-13.19532 4.898438,-4.85156 13.429688,-4.85156 2.976562,0 6.070312,0.72656 3.117188,0.70313 6.703125,2.41407 v 5.50781 h -0.421875 q -0.726562,-0.5625 -2.109375,-1.47656 -1.382812,-0.91407 -2.71875,-1.52344 -1.617187,-0.72656 -3.679687,-1.19531 -2.039063,-0.49219 -4.640625,-0.49219 -5.859375,0 -9.28125,3.77344 -3.398438,3.75 -3.398438,10.17187 0,6.77344 3.5625,10.54688 3.5625,3.75 9.703125,3.75 2.25,0 4.476563,-0.44532 2.25,-0.44531 3.9375,-1.14843 v -8.55469 h -9.351563 v -4.07813 h 13.945313 z"
         style="font-style:normal;font-variant:normal;font-weight:normal;font-stretch:normal;font-size:48px;font-family:sans-serif;-inkscape-font-specification:'sans-serif, Normal';font-variant-ligatures:normal;font-variant-caps:normal;font-variant-numeric:normal;font-variant-east-asian:normal;fill:#ffffff;stroke-width:0.743605"
         id="path900" />
      <path
         d="m 108.39808,164.06848 h -6.02343 l -11.67188,-13.875 h -6.539062 v 13.875 h -4.640625 v -34.89844 h 9.773437 q 3.164063,0 5.273438,0.42188 2.109375,0.39844 3.796875,1.45312 1.898437,1.19532 2.953127,3.02344 1.07812,1.80469 1.07812,4.59375 0,3.77344 -1.89843,6.32813 -1.898442,2.53125 -5.226567,3.82031 z M 97.54652,138.99036 q 0,-1.5 -0.539062,-2.64844 -0.515625,-1.17188 -1.734375,-1.96875 -1.007813,-0.67969 -2.390625,-0.9375 -1.382813,-0.28125 -3.257813,-0.28125 h -5.460937 v 13.17187 h 4.6875 q 2.203125,0 3.84375,-0.375 1.640625,-0.39843 2.789062,-1.45312 1.054688,-0.98438 1.546875,-2.25 0.515625,-1.28906 0.515625,-3.25781 z"
         style="font-style:normal;font-variant:normal;font-weight:normal;font-stretch:normal;font-size:48px;font-family:sans-serif;-inkscape-font-specification:'sans-serif, Normal';font-variant-ligatures:normal;font-variant-caps:normal;font-variant-numeric:normal;font-variant-east-asian:normal;fill:#ffffff;stroke-width:0.743605"
         id="path902" />
      <path
         d="m 173.27308,164.06848 h -5.74218 l -16.54688,-31.21875 v 31.21875 h -4.33594 v -34.89844 h 7.19532 l 15.09375,28.5 v -28.5 h 4.33593 z"
         style="font-style:normal;font-variant:normal;font-weight:normal;font-stretch:normal;font-size:48px;font-family:sans-serif;-inkscape-font-specification:'sans-serif, Normal';font-variant-ligatures:normal;font-variant-caps:normal;font-variant-numeric:normal;font-variant-east-asian:normal;fill:#ffffff;stroke-width:0.743605"
         id="path904" />
      <path
         d="m 208.82777,150.05286 q 0,3.79687 -0.84375,6.63281 -0.82031,2.8125 -2.71875,4.6875 -1.80469,1.78125 -4.21875,2.60156 -2.41406,0.82031 -5.625,0.82031 -3.28125,0 -5.71875,-0.86718 -2.4375,-0.86719 -4.10156,-2.55469 -1.89844,-1.92188 -2.74219,-4.64063 -0.82031,-2.71875 -0.82031,-6.67968 v -20.88282 h 4.64062 v 21.11719 q 0,2.83594 0.375,4.47656 0.39844,1.64063 1.3125,2.97657 1.03125,1.52343 2.78907,2.29687 1.78125,0.77344 4.26562,0.77344 2.50781,0 4.26563,-0.75 1.75781,-0.77344 2.8125,-2.32031 0.91406,-1.33594 1.28906,-3.04688 0.39844,-1.73437 0.39844,-4.28906 v -21.23438 h 4.64062 z"
         style="font-style:normal;font-variant:normal;font-weight:normal;font-stretch:normal;font-size:48px;font-family:sans-serif;-inkscape-font-specification:'sans-serif, Normal';font-variant-ligatures:normal;font-variant-caps:normal;font-variant-numeric:normal;font-variant-east-asian:normal;fill:#ffffff;stroke-width:0.743605"
         id="path906" />
      <path
         d="m 239.78871,164.06848 h -22.07813 v -34.89844 h 4.64063 v 30.77344 h 17.4375 z"
         style="font-style:normal;font-variant:normal;font-weight:normal;font-stretch:normal;font-size:48px;font-family:sans-serif;-inkscape-font-specification:'sans-serif, Normal';font-variant-ligatures:normal;font-variant-caps:normal;font-variant-numeric:normal;font-variant-east-asian:normal;fill:#ffffff;stroke-width:0.743605"
         id="path908" />
      <path
         d="m 307.05433,164.06848 h -6.02343 l -11.67188,-13.875 h -6.53906 v 13.875 h -4.64063 v -34.89844 h 9.77344 q 3.16406,0 5.27344,0.42188 2.10937,0.39844 3.79687,1.45312 1.89844,1.19532 2.95313,3.02344 1.07812,1.80469 1.07812,4.59375 0,3.77344 -1.89843,6.32813 -1.89844,2.53125 -5.22657,3.82031 z m -10.85156,-25.07812 q 0,-1.5 -0.53906,-2.64844 -0.51563,-1.17188 -1.73438,-1.96875 -1.00781,-0.67969 -2.39062,-0.9375 -1.38281,-0.28125 -3.25781,-0.28125 h -5.46094 v 13.17187 h 4.6875 q 2.20312,0 3.84375,-0.375 1.64062,-0.39843 2.78906,-1.45312 1.05469,-0.98438 1.54688,-2.25 0.51562,-1.28906 0.51562,-3.25781 z"
         style="font-style:normal;font-variant:normal;font-weight:normal;font-stretch:normal;font-size:48px;font-family:sans-serif;-inkscape-font-specification:'sans-serif, Normal';font-variant-ligatures:normal;font-variant-caps:normal;font-variant-numeric:normal;font-variant-east-asian:normal;fill:#ffffff;stroke-width:0.743605"
         id="path910" />
      <path
         d="m 323.85902,164.06848 h -13.78125 v -3.5625 h 4.57031 v -27.77344 h -4.57031 v -3.5625 h 13.78125 v 3.5625 h -4.57031 v 27.77344 h 4.57031 z"
         style="font-style:normal;font-variant:normal;font-weight:normal;font-stretch:normal;font-size:48px;font-family:sans-serif;-inkscape-font-specification:'sans-serif, Normal';font-variant-ligatures:normal;font-variant-caps:normal;font-variant-numeric:normal;font-variant-east-asian:normal;fill:#ffffff;stroke-width:0.743605"
         id="path912" />
      <path
         d="m 356.69496,133.29504 h -12.46875 v 30.77344 h -4.64063 v -30.77344 h -12.46875 v -4.125 h 29.57813 z"
         style="font-style:normal;font-variant:normal;font-weight:normal;font-stretch:normal;font-size:48px;font-family:sans-serif;-inkscape-font-specification:'sans-serif, Normal';font-variant-ligatures:normal;font-variant-caps:normal;font-variant-numeric:normal;font-variant-east-asian:normal;fill:#ffffff;stroke-width:0.743605"
         id="path914" />
      <path
         d="m 386.13246,129.17004 -12.28125,19.59375 v 15.30469 h -4.64063 v -14.8125 l -12.32812,-20.08594 h 5.13281 l 9.53906,15.60938 9.63282,-15.60938 z"
         style="font-style:normal;font-variant:normal;font-weight:normal;font-stretch:normal;font-size:48px;font-family:sans-serif;-inkscape-font-specification:'sans-serif, Normal';font-variant-ligatures:normal;font-variant-caps:normal;font-variant-numeric:normal;font-variant-east-asian:normal;fill:#ffffff;stroke-width:0.743605"
         id="path916" />
    </g>
    <text
       id="text887"
       y="101.94885"
       x="67.881195"
       style="font-style:normal;font-weight:normal;font-size:10.5833px;line-height:1.25;font-family:sans-serif;fill:#000000;fill-opacity:1;stroke:none;stroke-width:0.264583"
       xml:space="preserve"><tspan
         style="stroke-width:0.264583"
         y="101.94885"
         x="67.881195"
         id="tspan885"
         sodipodi:role="line" /></text>
    <path
       id="path897-0"
       style="color:#000000;font-style:normal;font-variant:normal;font-weight:normal;font-stretch:normal;font-size:medium;line-height:normal;font-family:sans-serif;font-variant-ligatures:normal;font-variant-position:normal;font-variant-caps:normal;font-variant-numeric:normal;font-variant-alternates:normal;font-variant-east-asian:normal;font-feature-settings:normal;font-variation-settings:normal;text-indent:0;text-align:start;text-decoration:none;text-decoration-line:none;text-decoration-style:solid;text-decoration-color:#000000;letter-spacing:normal;word-spacing:normal;text-transform:none;writing-mode:lr-tb;direction:ltr;text-orientation:mixed;dominant-baseline:auto;baseline-shift:baseline;text-anchor:start;white-space:normal;shape-padding:0;shape-margin:0;inline-size:0;clip-rule:nonzero;display:inline;overflow:visible;visibility:visible;opacity:1;isolation:auto;mix-blend-mode:normal;color-interpolation:sRGB;color-interpolation-filters:linearRGB;solid-color:#000000;solid-opacity:1;vector-effect:none;fill:#b69e40;fill-opacity:1;fill-rule:nonzero;stroke:none;stroke-width:4.14797;stroke-linecap:round;stroke-linejoin:round;stroke-miterlimit:4;stroke-dasharray:none;stroke-dashoffset:0;stroke-opacity:1;color-rendering:auto;image-rendering:auto;shape-rendering:auto;text-rendering:auto;enable-background:accumulate;stop-color:#000000;stop-opacity:1"
       d="m 258.5158,127.27361 c -0.30894,0.0131 -0.60968,0.11703 -0.87739,0.30573 l -12.4316,8.76374 c -0.58013,0.40975 -0.93677,1.16622 -0.93664,1.98464 v 9.76077 1.27032 l -0.001,15.42923 3.6737,0.007 0.0777,-10.29244 v -1.17833 l 9.61802,6.78046 c 0.58033,0.40879 1.29416,0.40879 1.87451,0 l 9.61679,-6.78046 v 1.21079 l -0.0283,10.15851 3.77983,-0.005 v -15.33044 -1.3082 -9.7229 c -7e-5,-0.81872 -0.35735,-1.5752 -0.93784,-1.98464 l -12.4304,-8.76374 c -0.30258,-0.2131 -0.64796,-0.3191 -0.99711,-0.30572 z m 0.0592,4.93789 10.55464,7.44064 v 8.40253 h -0.0283 l -10.52626,7.41903 -10.47813,-7.39063 h -0.0765 v -8.43093 z" />
    <path
       d="m 127.8518,127.27361 c -0.30894,0.0131 -0.60968,0.11703 -0.87739,0.30573 l -12.4316,8.76374 c -0.58013,0.40975 -0.93677,1.16622 -0.93664,1.98464 v 9.76077 1.27032 l -0.001,15.42923 3.6737,0.007 0.0777,-10.29244 v -1.17833 l 9.61802,6.78046 c 0.58033,0.40879 1.29416,0.40879 1.87451,0 l 9.61679,-6.78046 v 1.21079 l -0.0283,10.15851 3.77983,-0.005 v -15.33044 -1.3082 -9.7229 c -7e-5,-0.81872 -0.35735,-1.5752 -0.93784,-1.98464 l -12.4304,-8.76374 c -0.30258,-0.2131 -0.64796,-0.3191 -0.99711,-0.30572 z m 0.0592,4.93789 10.55464,7.44064 v 8.40253 h -0.0283 l -10.52626,7.41903 -10.47813,-7.39063 h -0.0765 v -8.43093 z"
       style="color:#000000;font-style:normal;font-variant:normal;font-weight:normal;font-stretch:normal;font-size:medium;line-height:normal;font-family:sans-serif;font-variant-ligatures:normal;font-variant-position:normal;font-variant-caps:normal;font-variant-numeric:normal;font-variant-alternates:normal;font-variant-east-asian:normal;font-feature-settings:normal;font-variation-settings:normal;text-indent:0;text-align:start;text-decoration:none;text-decoration-line:none;text-decoration-style:solid;text-decoration-color:#000000;letter-spacing:normal;word-spacing:normal;text-transform:none;writing-mode:lr-tb;direction:ltr;text-orientation:mixed;dominant-baseline:auto;baseline-shift:baseline;text-anchor:start;white-space:normal;shape-padding:0;shape-margin:0;inline-size:0;clip-rule:nonzero;display:inline;overflow:visible;visibility:visible;opacity:1;isolation:auto;mix-blend-mode:normal;color-interpolation:sRGB;color-interpolation-filters:linearRGB;solid-color:#000000;solid-opacity:1;vector-effect:none;fill:#b69e40;fill-opacity:1;fill-rule:nonzero;stroke:none;stroke-width:4.14797;stroke-linecap:round;stroke-linejoin:round;stroke-miterlimit:4;stroke-dasharray:none;stroke-dashoffset:0;stroke-opacity:1;color-rendering:auto;image-rendering:auto;shape-rendering:auto;text-rendering:auto;enable-background:accumulate;stop-color:#000000;stop-opacity:1"
       id="path897-0-7" />
  </g>
</svg>
